<svg xmlns="http://www.w3.org/2000/svg" version="1.1" xmlns:xlink="http://www.w3.org/1999/xlink" xmlns:svgjs="http://svgjs.dev/svgjs" width="1000" height="1000"><g clip-path="url(#SvgjsClipPath1070)"><rect width="1000" height="1000" fill="#ffffff"></rect><g transform="matrix(62.5,0,0,62.5,0,0)"><svg xmlns="http://www.w3.org/2000/svg" version="1.1" xmlns:xlink="http://www.w3.org/1999/xlink" xmlns:svgjs="http://svgjs.dev/svgjs" width="16" height="16"><svg width="16" height="16" viewBox="0 0 16 16" fill="none" xmlns="http://www.w3.org/2000/svg">
<circle cx="8" cy="8" r="7.8" fill="#D10073" stroke="white" stroke-width="0.4"></circle>
<path d="M8.06358 12C7.49935 12 6.95004 11.9016 6.41837 11.7062C5.88533 11.5094 5.45945 11.2299 5.14072 10.8663C5.03086 10.7422 4.9861 10.5982 5.00373 10.4357C5.02136 10.2731 5.0946 10.139 5.2221 10.0335C5.36722 9.918 5.51642 9.87094 5.66561 9.88948C5.81616 9.90945 5.94094 9.97504 6.04131 10.0906C6.24205 10.3401 6.51873 10.5383 6.87409 10.6866C7.22944 10.8349 7.62006 10.9091 8.04866 10.9091C8.67663 10.9091 9.13914 10.7964 9.43481 10.5711C9.73049 10.3458 9.88375 10.0663 9.89189 9.73119C9.89189 9.40606 9.74405 9.13369 9.44838 8.91266C9.1527 8.69305 8.64951 8.5205 7.9388 8.39501C7.01921 8.23244 6.34784 7.96007 5.92467 7.57647C5.5015 7.1943 5.28991 6.73369 5.28991 6.1975C5.28991 5.7098 5.41741 5.30196 5.67239 4.97683C5.92738 4.65169 6.26239 4.40784 6.67607 4.24385C7.08974 4.08128 7.53868 4 8.02153 4C8.63187 4 9.15948 4.10838 9.60571 4.32371C10.0519 4.53904 10.4114 4.82852 10.6853 5.19216C10.7857 5.3262 10.8291 5.46738 10.8155 5.61569C10.802 5.76399 10.7274 5.88093 10.5904 5.96791C10.4724 6.05348 10.3327 6.08342 10.174 6.05348C10.014 6.02496 9.87968 5.94795 9.77118 5.82389C9.54332 5.56578 9.28426 5.37611 8.99265 5.25633C8.70105 5.13654 8.36875 5.07665 7.99576 5.07665C7.52241 5.07665 7.13993 5.17504 6.84832 5.37041C6.55671 5.5672 6.41158 5.81818 6.41158 6.12478C6.41158 6.33583 6.46448 6.51693 6.56892 6.67094C6.67335 6.82353 6.86053 6.96043 7.12908 7.08021C7.39763 7.2 7.78282 7.30838 8.2833 7.40392C8.96688 7.52799 9.50534 7.70339 9.90139 7.9287C10.2974 8.15401 10.5795 8.41497 10.7477 8.71159C10.9159 9.0082 11 9.33904 11 9.70267C11 10.1533 10.8793 10.5483 10.6379 10.8877C10.3964 11.2271 10.0574 11.498 9.62063 11.6991C9.18254 11.8988 8.66442 12 8.06358 12Z" fill="white"></path>
</svg></svg></g></g><defs><clipPath id="SvgjsClipPath1070"><rect width="1000" height="1000" x="0" y="0" rx="500" ry="500"></rect></clipPath></defs></svg>